<svg width="184" height="189" viewBox="0 0 184 189" fill="none" xmlns="http://www.w3.org/2000/svg">
<mask id="mask0_23_5" style="mask-type:alpha" maskUnits="userSpaceOnUse" x="0" y="0" width="184" height="176">
<path d="M91.9971 0C41.1937 0 0 39.3997 0 87.9967C0 136.594 41.1937 175.993 91.9971 175.993C142.812 175.993 184 136.594 184 87.9967C184 39.3993 142.812 0 91.9971 0ZM108.151 128.397C104.43 132.347 102.297 134.695 98.2801 138.368C92.2002 143.929 85.2966 145.409 79.9293 139.92C72.2146 132.028 80.3059 108.019 80.5032 107.11C81.9522 100.728 84.8445 87.9743 84.8445 87.9743C84.8445 87.9743 78.596 91.6332 74.8866 92.9308C72.1506 93.8871 69.0557 92.6314 68.2906 90.1004C67.5776 87.7553 68.1454 86.2638 69.6469 84.6616C73.3678 80.714 75.5007 78.3662 79.5178 74.6933C85.6035 69.1297 92.5013 67.6523 97.8686 73.1382C105.583 81.0303 99.8912 94.0146 97.8916 103.215C97.6947 104.127 92.9531 125.087 92.9531 125.087C92.9531 125.087 99.2015 121.427 102.911 120.127C105.652 119.174 108.748 120.432 109.513 122.961C110.226 125.306 109.652 126.797 108.151 128.397ZM98.1701 60.5391C89.5861 61.2596 82.022 55.189 81.2683 46.9724C80.5208 38.7644 86.8674 31.5265 95.4518 30.8115C104.03 30.0906 111.6 36.1671 112.348 44.3751C113.101 52.5834 106.748 59.8241 98.1701 60.5391Z" fill="black"/>
</mask>
<g mask="url(#mask0_23_5)">
<path d="M-67 101.5L213 96.5L168 -49L-34 -45.5L-67 101.5Z" fill="url(#paint0_linear_23_5)" stroke="black"/>
<path d="M-53 116.139C-33.0091 99.9277 38.8829 70.5959 166.523 82.962C294.163 95.3281 219.707 150.448 166.523 176.462L2.82377 207L-49.2281 141.022L-53 118.778V116.139Z" fill="url(#paint1_linear_23_5)"/>
</g>
<defs>
<linearGradient id="paint0_linear_23_5" x1="37.5" y1="-22.8787" x2="102.5" y2="101.621" gradientUnits="userSpaceOnUse">
<stop stop-color="#F7F8EC"/>
<stop offset="0.986196" stop-color="#C3CF86"/>
</linearGradient>
<linearGradient id="paint1_linear_23_5" x1="126.91" y1="175.331" x2="119.75" y2="101.435" gradientUnits="userSpaceOnUse">
<stop stop-color="#BBDC0C"/>
<stop offset="1" stop-color="#A8B853"/>
</linearGradient>
</defs>
</svg>
