<svg width="274" height="289" viewBox="0 0 274 289" fill="none" xmlns="http://www.w3.org/2000/svg">
<g clip-path="url(#clip0_9_42)">
<mask id="mask0_9_42" style="mask-type:alpha" maskUnits="userSpaceOnUse" x="42" y="-1" width="191" height="276">
<path d="M232.344 63.1885C232.321 62.7796 232.242 62.3853 232.105 61.9987C232.061 61.8767 232.031 61.7555 231.977 61.6386C231.771 61.1908 231.51 60.7657 231.149 60.4035C231.149 60.4035 216.487 45.6781 201.808 30.9656C194.47 23.607 187.124 16.257 181.605 10.7466C177.525 6.67467 174.837 3.99033 172.943 2.32235C172.913 2.2804 172.884 2.24272 172.855 2.20077C172.851 2.19263 172.846 2.18835 172.842 2.18022L172.809 2.20505C170.148 -0.11325 169.097 -0.365415 167.894 0.361541L56.262 0.365394C48.9497 0.365394 43 6.31933 43 13.6356V230.119C43 233.828 44.4424 237.314 47.0766 239.952C49.6685 242.532 53.2476 244.012 56.8931 244.012H113.198C115.564 244.012 117.479 242.097 117.479 239.731C117.479 237.364 115.564 235.45 113.198 235.45H56.8931C55.4927 235.45 54.1171 234.877 53.126 233.894C52.1311 232.899 51.5625 231.524 51.5625 230.119V13.6356C51.5625 11.0394 53.6697 8.92789 56.262 8.92789L165.274 8.92404C165.435 18.6951 165.253 45.7762 165.066 63.376C165.053 64.5216 165.501 65.6211 166.303 66.4324C167.106 67.2475 168.206 67.703 169.347 67.703H223.828V230.817C223.828 232.038 223.335 233.229 222.47 234.095C221.596 234.969 220.433 235.45 219.196 235.45H217.248C214.882 235.45 215.195 237.364 215.195 239.731C215.195 242.097 214.882 244.012 217.248 244.012H219.196C222.725 244.012 226.04 242.637 228.528 240.145C230.982 237.691 232.391 234.292 232.391 230.817V63.4218C232.391 63.3392 232.349 63.2702 232.344 63.1885ZM173.674 59.1405C173.904 36.6058 173.975 23.214 173.909 15.1618C183.926 25.1543 202.292 43.5666 217.808 59.1405H173.674Z" fill="black"/>
<path d="M113.198 235.45C115.564 235.45 117.479 237.364 117.479 239.731L126.195 213.181C118.695 208.681 111.691 190.452 115.195 174.681C117.195 156.681 134.433 132.181 166.303 132.181C203.059 132.181 220.417 163.181 215.195 188.681C213.762 195.681 208.123 209.347 206.695 213.181L215.195 239.731C215.195 237.364 214.882 235.45 217.248 235.45H219.196C220.433 235.45 221.596 234.969 222.47 234.095C223.335 233.229 223.828 232.038 223.828 230.817V67.703H169.347C168.206 67.703 167.106 67.2475 166.303 66.4324C165.501 65.6211 165.053 64.5216 165.066 63.376C165.253 45.7762 165.435 18.6951 165.274 8.92404L56.262 8.92789C53.6697 8.92789 51.5625 11.0394 51.5625 13.6356V230.119C51.5625 231.524 52.1311 232.899 53.126 233.894C54.1171 234.877 55.4927 235.45 56.8931 235.45H113.198Z" fill="black"/>
<path d="M199.475 211.798C199.316 211.253 199.049 210.77 198.719 210.35C204.908 202.925 208.639 193.38 208.639 182.958C208.639 159.314 189.471 140.146 165.827 140.146C142.182 140.146 123.014 159.314 123.014 182.958C123.014 193.964 127.203 203.968 134.028 211.553L119.577 261.091C119.105 262.709 119.628 264.457 120.911 265.552C122.195 266.643 123.997 266.873 125.523 266.158L140.085 259.239L149.237 272.509C150.044 273.68 151.369 274.362 152.761 274.362C153.004 274.362 153.246 274.341 153.489 274.299C155.136 274.014 156.466 272.802 156.896 271.188L166.72 234.534L176.542 271.188C176.973 272.798 178.299 274.01 179.941 274.299C180.188 274.341 180.435 274.362 180.677 274.362C182.065 274.362 183.383 273.688 184.193 272.522L193.371 259.319L207.924 266.167C209.446 266.877 211.244 266.639 212.532 265.544C213.811 264.453 214.33 262.709 213.857 261.091L199.475 211.798ZM165.827 148.301C184.937 148.301 200.484 163.848 200.484 182.958C200.484 202.069 184.937 217.616 165.827 217.616C146.716 217.616 131.169 202.069 131.169 182.958C131.169 163.848 146.716 148.301 165.827 148.301ZM151.026 260.021L145.065 251.379C143.869 249.648 141.598 249.033 139.704 249.94L130.469 254.327L141.104 217.871C146.671 221.821 153.214 224.461 160.311 225.376L151.026 260.021ZM193.743 250.029C191.849 249.138 189.595 249.748 188.404 251.462L182.425 260.063L173.059 225.114C180.119 223.91 186.578 220.99 192.008 216.78L202.978 254.377L193.743 250.029Z" fill="black"/>
<path d="M165.827 204.364C177.649 204.364 187.233 194.781 187.233 182.958C187.233 171.136 177.649 161.552 165.827 161.552C154.005 161.552 144.421 171.136 144.421 182.958C144.421 194.781 154.005 204.364 165.827 204.364ZM165.827 170.114C172.909 170.114 178.671 175.876 178.671 182.958C178.671 190.041 172.909 195.802 165.827 195.802C158.744 195.802 152.983 190.041 152.983 182.958C152.983 175.876 158.744 170.114 165.827 170.114Z" fill="black"/>
<path fill-rule="evenodd" clip-rule="evenodd" d="M165.827 148.301C184.937 148.301 200.484 163.848 200.484 182.958C200.484 202.069 184.937 217.616 165.827 217.616C146.716 217.616 131.169 202.069 131.169 182.958C131.169 163.848 146.716 148.301 165.827 148.301ZM187.233 182.958C187.233 194.781 177.649 204.364 165.827 204.364C154.005 204.364 144.421 194.781 144.421 182.958C144.421 171.136 154.005 161.552 165.827 161.552C177.649 161.552 187.233 171.136 187.233 182.958Z" fill="black"/>
</mask>
<g mask="url(#mask0_9_42)">
<path d="M28.5 218.5L242 194.5V-11H32.5L28.5 218.5Z" fill="url(#paint0_linear_9_42)"/>
<path d="M29.1284 217.627C69.967 197.009 179.642 158.74 291.635 170.61C403.627 182.48 328.502 229.323 276.94 251.261C252.75 260.194 202.491 278.292 194.968 279.218C185.565 280.375 54.0127 289.203 50.5335 285.426C47.7501 282.404 35.1037 238.967 29.1284 217.627Z" fill="url(#paint1_linear_9_42)"/>
</g>
</g>
<defs>
<linearGradient id="paint0_linear_9_42" x1="113.5" y1="12.5" x2="159.5" y2="197.5" gradientUnits="userSpaceOnUse">
<stop stop-color="white"/>
<stop offset="1" stop-color="#C3CF86"/>
</linearGradient>
<linearGradient id="paint1_linear_9_42" x1="176.71" y1="261.491" x2="140.794" y2="178.208" gradientUnits="userSpaceOnUse">
<stop stop-color="#DCF843"/>
<stop offset="1" stop-color="#A8B853"/>
</linearGradient>
<clipPath id="clip0_9_42">
<rect width="274" height="289" fill="white"/>
</clipPath>
</defs>
</svg>
