<svg width="274" height="274" viewBox="0 0 274 274" fill="none" xmlns="http://www.w3.org/2000/svg">
<mask id="mask0_9_47" style="mask-type:alpha" maskUnits="userSpaceOnUse" x="22" y="28" width="230" height="212">
<path d="M211.341 115.042C211.341 123.475 204.209 130.312 195.411 130.312C186.613 130.312 179.48 123.475 179.48 115.042C179.48 106.609 186.613 99.7725 195.411 99.7725C204.209 99.7725 211.341 106.609 211.341 115.042Z" fill="#1C274C"/>
<path fill-rule="evenodd" clip-rule="evenodd" d="M205.914 63.1576C193.816 61.5984 178.357 61.5985 158.839 61.5987H115.161C95.6432 61.5985 80.1841 61.5984 68.0856 63.1576C55.6343 64.7622 45.5562 68.143 37.6085 75.7611C29.6608 83.3792 26.1336 93.0392 24.4596 104.974C22.833 116.571 22.8332 131.389 22.8333 150.097V151.246C22.8332 169.953 22.833 184.771 24.4596 196.368C26.1336 208.303 29.6608 217.962 37.6085 225.581C45.5562 233.199 55.6342 236.58 68.0856 238.185C80.1842 239.743 95.6432 239.743 115.161 239.743H158.839C178.357 239.743 193.816 239.743 205.914 238.185C218.365 236.58 228.444 233.199 236.391 225.581C244.339 217.962 247.866 208.303 249.54 196.368C251.167 184.771 251.167 169.953 251.167 151.246V150.097C251.167 131.389 251.167 116.571 249.54 104.974C247.866 93.0392 244.339 83.3792 236.391 75.7611C228.444 68.143 218.365 64.7622 205.914 63.1576ZM70.2083 78.2909C59.5234 79.6679 53.3674 82.2502 48.8729 86.5583C44.3784 90.8665 41.6844 96.7671 40.2478 107.009C39.0956 115.224 38.8377 125.491 38.7801 138.92L44.1555 134.412C56.9891 123.648 76.3314 124.266 88.3895 135.824L133.947 179.492C138.508 183.864 145.689 184.46 150.967 180.905L154.134 178.772C169.324 168.54 189.875 169.725 203.676 181.63L231.163 205.342C232.287 202.328 233.135 198.731 233.752 194.333C235.22 183.872 235.237 170.082 235.237 150.671C235.237 131.26 235.22 117.47 233.752 107.009C232.315 96.7671 229.621 90.8665 225.128 86.5583C220.633 82.2502 214.477 79.6679 203.792 78.2909C192.878 76.8845 178.492 76.8682 158.241 76.8682H115.759C95.5089 76.8682 81.1221 76.8845 70.2083 78.2909Z" fill="#1C274C"/>
<g opacity="0.5">
<path d="M195.072 29.8019C185.256 28.5413 172.758 28.5414 157.179 28.5417H121.905C106.325 28.5414 93.8272 28.5413 84.0111 29.8019C73.846 31.1073 65.3708 33.8887 58.6488 40.3094C54.7721 44.0124 52.1612 48.2734 50.3828 53.0793C56.1391 50.4534 62.6472 48.906 69.9539 47.9596C82.3339 46.3559 98.1525 46.356 118.124 46.3561H162.819C182.79 46.356 198.608 46.3559 210.988 47.9596C217.37 48.7863 223.142 50.0713 228.337 52.1328C226.572 47.7122 224.056 43.7675 220.434 40.3094C213.712 33.8887 205.237 31.1073 195.072 29.8019Z" fill="#1C274C"/>
</g>
</mask>
<g mask="url(#mask0_9_47)">
<path d="M8 185L268 104.712V18H8V185Z" fill="url(#paint0_linear_9_47)"/>
<path d="M-6 149.811L150 100H289L268.5 275L1.5 256.045L-6 149.811Z" fill="url(#paint1_linear_9_47)"/>
</g>
<defs>
<linearGradient id="paint0_linear_9_47" x1="107" y1="28.9192" x2="156.202" y2="179.034" gradientUnits="userSpaceOnUse">
<stop stop-color="#F8F6E8"/>
<stop offset="1" stop-color="#B8C76D"/>
</linearGradient>
<linearGradient id="paint1_linear_9_47" x1="141.5" y1="100" x2="141.5" y2="275" gradientUnits="userSpaceOnUse">
<stop stop-color="#B4C070"/>
<stop offset="1" stop-color="#BDDE22"/>
</linearGradient>
</defs>
</svg>
