<svg width="274" height="295" viewBox="0 0 274 295" fill="none" xmlns="http://www.w3.org/2000/svg">
<mask id="mask0_9_59" style="mask-type:alpha" maskUnits="userSpaceOnUse" x="21" y="0" width="232" height="274">
<path d="M183.831 204.701L153.04 234.464C147.72 239.796 140.356 242.022 132.228 242.022C124.099 242.022 116.735 239.796 111.404 234.464L61.9468 184.653C56.6152 179.322 53.9323 171.524 53.9323 163.384C53.9323 155.244 56.6152 147.892 61.9468 142.56L111.255 92.5549C116.587 87.2233 124.099 85.1912 132.228 85.1912C140.356 85.1912 147.72 87.4174 153.04 92.749L183.831 122.501C189.699 128.38 199.415 128.175 205.523 122.067C211.631 115.948 211.836 106.232 205.968 100.364L176.182 70.2696C168.491 62.6667 158.819 57.3777 148.268 55.0055L176.433 26.4296C182.324 20.5614 182.119 10.8344 176.011 4.72651C169.903 -1.38141 160.176 -1.57549 154.296 4.29267L38.9879 119.612C27.7881 130.824 21.9314 146.293 21.9314 163.395C21.9314 180.497 27.7881 196.447 38.9879 207.635L88.6161 257.423C99.8159 268.6 115.297 274 132.388 274C149.478 274 164.959 268.155 176.171 256.944L205.957 226.838C211.825 220.97 211.619 211.254 205.511 205.146C199.403 199.038 189.688 198.833 183.831 204.701ZM237.592 148.531H121.77C113.756 148.531 107.271 155.426 107.271 163.898C107.271 172.369 113.756 179.264 121.77 179.264H237.592C245.595 179.264 252.091 172.369 252.091 163.898C252.091 155.426 245.595 148.531 237.592 148.531Z" fill="black"/>
</mask>
<g mask="url(#mask0_9_59)">
<path d="M2.99997 131.498L280.189 171.469L262.376 2.76967L62.4237 -26.1856L2.99997 131.498Z" fill="url(#paint0_linear_9_59)" stroke="black"/>
<path d="M-56.3523 143.914C-25.4693 122.208 75.8218 92.1754 233.922 145.692C392.021 199.208 278.771 271.331 202.384 300.702L-16.0304 308.989L-59.9502 186.143L-57.2425 148.29L-56.3523 143.914Z" fill="url(#paint1_linear_9_59)"/>
</g>
<defs>
<linearGradient id="paint0_linear_9_59" x1="128.839" y1="10.5284" x2="184.017" y2="153.877" gradientUnits="userSpaceOnUse">
<stop stop-color="#F7F8EC"/>
<stop offset="0.986196" stop-color="#C3CF86"/>
</linearGradient>
<linearGradient id="paint1_linear_9_59" x1="152.404" y1="288.581" x2="161.789" y2="163.736" gradientUnits="userSpaceOnUse">
<stop stop-color="#BBDC0C"/>
<stop offset="1" stop-color="#A8B853"/>
</linearGradient>
</defs>
</svg>
