<svg width="206" height="206" viewBox="0 0 206 206" fill="none" xmlns="http://www.w3.org/2000/svg">
<g filter="url(#filter0_di_43_2)">
<path d="M77.25 12.875H103V193.125H77.25L25.75 141.625H0V64.375H25.75L77.25 12.875Z" fill="url(#paint0_linear_43_2)"/>
<path d="M180.25 103C180.25 74.5573 157.192 51.5 128.75 51.5V25.75C171.414 25.75 206 60.336 206 103C206 145.664 171.414 180.25 128.75 180.25V154.5C157.192 154.5 180.25 131.442 180.25 103Z" fill="url(#paint1_linear_43_2)"/>
<path d="M154.5 103C154.5 117.221 142.972 128.75 128.75 128.75V77.25C142.972 77.25 154.5 88.7787 154.5 103Z" fill="url(#paint2_linear_43_2)"/>
</g>
<defs>
<filter id="filter0_di_43_2" x="0" y="0" width="206" height="210" filterUnits="userSpaceOnUse" color-interpolation-filters="sRGB">
<feFlood flood-opacity="0" result="BackgroundImageFix"/>
<feColorMatrix in="SourceAlpha" type="matrix" values="0 0 0 0 0 0 0 0 0 0 0 0 0 0 0 0 0 0 127 0" result="hardAlpha"/>
<feOffset dy="4"/>
<feComposite in2="hardAlpha" operator="out"/>
<feColorMatrix type="matrix" values="0 0 0 0 0 0 0 0 0 0 0 0 0 0 0 0 0 0 0.72 0"/>
<feBlend mode="normal" in2="BackgroundImageFix" result="effect1_dropShadow_43_2"/>
<feBlend mode="normal" in="SourceGraphic" in2="effect1_dropShadow_43_2" result="shape"/>
<feColorMatrix in="SourceAlpha" type="matrix" values="0 0 0 0 0 0 0 0 0 0 0 0 0 0 0 0 0 0 127 0" result="hardAlpha"/>
<feOffset dy="4"/>
<feGaussianBlur stdDeviation="2"/>
<feComposite in2="hardAlpha" operator="arithmetic" k2="-1" k3="1"/>
<feColorMatrix type="matrix" values="0 0 0 0 0 0 0 0 0 0 0 0 0 0 0 0 0 0 0.25 0"/>
<feBlend mode="normal" in2="shape" result="effect2_innerShadow_43_2"/>
</filter>
<linearGradient id="paint0_linear_43_2" x1="51.5" y1="12.875" x2="51.5" y2="193.125" gradientUnits="userSpaceOnUse">
<stop stop-color="#DFDFDF"/>
<stop offset="1" stop-color="#6C6C6C"/>
</linearGradient>
<linearGradient id="paint1_linear_43_2" x1="167.375" y1="25.75" x2="167.375" y2="180.25" gradientUnits="userSpaceOnUse">
<stop stop-color="#DFDFDF"/>
<stop offset="1" stop-color="#6C6C6C"/>
</linearGradient>
<linearGradient id="paint2_linear_43_2" x1="141.625" y1="77.25" x2="141.625" y2="128.75" gradientUnits="userSpaceOnUse">
<stop stop-color="#DFDFDF"/>
<stop offset="1" stop-color="#6C6C6C"/>
</linearGradient>
</defs>
</svg>
