<svg width="288" height="305" viewBox="0 0 288 305" fill="none" xmlns="http://www.w3.org/2000/svg">
<mask id="mask0_12_15" style="mask-type:alpha" maskUnits="userSpaceOnUse" x="14" y="21" width="255" height="255">
<path d="M268.129 136.945L236.254 73.1953C235.592 71.8812 234.579 70.776 233.327 70.0024C232.075 69.2288 230.634 68.817 229.162 68.8125H53.8497C52.3781 68.817 50.9365 69.2288 49.6847 70.0024C48.4328 70.776 47.4197 71.8812 46.7575 73.1953L14.8825 136.945C14.9163 137.183 14.9163 137.425 14.8825 137.663C14.8447 138.353 14.8447 139.044 14.8825 139.734L14.0059 140.531C13.9982 140.664 13.9982 140.797 14.0059 140.93C14.0807 141.689 14.2411 142.438 14.484 143.161C14.484 143.161 14.484 143.559 14.484 143.798C14.8102 144.606 15.2983 145.338 15.9184 145.95L135.45 273.45C136.195 274.246 137.096 274.881 138.097 275.315C139.097 275.749 140.176 275.973 141.267 275.973C142.358 275.973 143.437 275.749 144.437 275.315C145.438 274.881 146.339 274.246 147.084 273.45L266.615 145.95C267.76 144.785 268.519 143.297 268.79 141.686C269.061 140.075 268.83 138.421 268.129 136.945ZM141.506 91.8422L167.006 132.562H116.006L141.506 91.8422ZM101.025 126.427L69.7872 84.75H127.162L101.025 126.427ZM155.85 84.75H213.225L181.987 126.427L155.85 84.75ZM170.512 148.5L141.506 241.336L112.5 148.5H170.512ZM123.576 237.272L40.3825 148.5H96.1637L123.576 237.272ZM187.326 148.5H243.107L159.436 237.272L187.326 148.5ZM248.287 132.562H197.287L227.807 91.8422L248.287 132.562ZM55.2044 91.8422L85.7247 132.562H34.884L55.2044 91.8422Z" fill="black"/>
<path d="M141.506 52.875C143.619 52.875 145.646 52.0354 147.141 50.541C148.635 49.0466 149.475 47.0197 149.475 44.9062V28.9688C149.475 26.8553 148.635 24.8284 147.141 23.334C145.646 21.8396 143.619 21 141.506 21C139.392 21 137.366 21.8396 135.871 23.334C134.377 24.8284 133.537 26.8553 133.537 28.9688V44.9062C133.537 47.0197 134.377 49.0466 135.871 50.541C137.366 52.0354 139.392 52.875 141.506 52.875Z" fill="black"/>
<path d="M96.0044 50.5641C96.7452 51.311 97.6265 51.9038 98.5976 52.3084C99.5686 52.7129 100.61 52.9212 101.662 52.9212C102.714 52.9212 103.756 52.7129 104.727 52.3084C105.698 51.9038 106.579 51.311 107.32 50.5641C108.067 49.8233 108.66 48.9419 109.064 47.9709C109.469 46.9998 109.677 45.9582 109.677 44.9063C109.677 43.8543 109.469 42.8127 109.064 41.8417C108.66 40.8706 108.067 39.9892 107.32 39.2485L99.3512 31.2797C97.8507 29.7792 95.8155 28.9362 93.6934 28.9362C91.5713 28.9362 89.5362 29.7792 88.0356 31.2797C86.5351 32.7802 85.6921 34.8154 85.6921 36.9375C85.6921 39.0596 86.5351 41.0948 88.0356 42.5953L96.0044 50.5641Z" fill="black"/>
<path d="M181.35 52.875C182.398 52.8811 183.438 52.6801 184.409 52.2835C185.38 51.8869 186.263 51.3026 187.007 50.5641L194.976 42.5953C196.477 41.0948 197.32 39.0596 197.32 36.9375C197.32 34.8154 196.477 32.7802 194.976 31.2797C193.476 29.7792 191.441 28.9362 189.318 28.9362C187.196 28.9362 185.161 29.7792 183.661 31.2797L175.692 39.2484C174.945 39.9892 174.352 40.8706 173.948 41.8417C173.543 42.8127 173.335 43.8543 173.335 44.9063C173.335 45.9582 173.543 46.9998 173.948 47.9709C174.352 48.9419 174.945 49.8233 175.692 50.5641C176.436 51.3026 177.32 51.8869 178.29 52.2835C179.261 52.6801 180.301 52.8811 181.35 52.875Z" fill="black"/>
</mask>
<g mask="url(#mask0_12_15)">
<path d="M21.9332 172.668L289.281 138.062L257.973 38.2743L39.478 0.711486L-14.7476 112.151L21.9332 172.668Z" fill="url(#paint0_linear_12_15)"/>
<path d="M-33.872 176.995C59.0884 151.826 271.914 110.442 379.534 146.257C487.154 182.073 351.489 304.468 270.204 361.188L-52.9131 277.711L-33.872 176.995Z" fill="url(#paint1_linear_12_15)"/>
</g>
<defs>
<linearGradient id="paint0_linear_12_15" x1="189.449" y1="11.5623" x2="142.844" y2="194.275" gradientUnits="userSpaceOnUse">
<stop stop-color="#F5F5F5"/>
<stop offset="1" stop-color="#C3CF86"/>
</linearGradient>
<linearGradient id="paint1_linear_12_15" x1="130.735" y1="173.004" x2="141.184" y2="271.153" gradientUnits="userSpaceOnUse">
<stop stop-color="#A3AE6C"/>
<stop offset="1" stop-color="#C2DF28"/>
</linearGradient>
</defs>
</svg>
