<svg width="219" height="219" viewBox="0 0 219 219" fill="none" xmlns="http://www.w3.org/2000/svg">
<mask id="mask0_9_39" style="mask-type:alpha" maskUnits="userSpaceOnUse" x="11" y="11" width="197" height="197">
<path d="M116.344 114.136L193.906 83.1105V134.693C189.297 131.742 183.817 130.031 177.938 130.031C161.559 130.031 148.281 143.309 148.281 159.688C148.281 176.066 161.559 189.344 177.938 189.344C194.316 189.344 207.594 176.066 207.594 159.688V72.5095C207.594 62.0812 207.594 53.3353 206.86 46.367C206.756 45.3822 206.634 44.4031 206.499 43.4895C205.792 38.7289 204.542 34.2878 202.132 30.5793C200.926 28.725 199.43 27.0539 197.566 25.6174C197.217 25.3482 196.854 25.0871 196.479 24.8346L196.403 24.7842C189.95 20.4893 182.694 20.7964 175.221 22.7009C167.993 24.5427 159.032 28.2934 148.044 32.8928L128.936 40.8905C123.785 43.046 119.422 44.8723 115.997 46.7638C112.352 48.7763 109.213 51.15 106.859 54.6871C104.506 58.2244 103.528 62.0363 103.079 66.1749C102.656 70.0646 102.656 74.795 102.656 80.3783V152.943C98.0463 149.992 92.5667 148.281 86.6875 148.281C70.3088 148.281 57.0312 161.559 57.0312 177.938C57.0312 194.316 70.3088 207.594 86.6875 207.594C103.066 207.594 116.344 194.316 116.344 177.938V114.136Z" fill="#1C274C"/>
<path opacity="0.5" d="M70.7187 18.25C70.7187 14.4703 67.6547 11.4063 63.875 11.4063C60.0953 11.4063 57.0312 14.4703 57.0312 18.25V70.8183C52.4218 67.8672 46.9419 66.1563 41.0625 66.1563C24.6838 66.1563 11.4062 79.4338 11.4062 95.8125C11.4062 112.191 24.6838 125.469 41.0625 125.469C57.4412 125.469 70.7187 112.191 70.7187 95.8125V45.6661C77.0927 50.2708 84.6759 52.4688 91.25 52.4688C95.0296 52.4688 98.0937 49.4047 98.0937 45.625C98.0937 41.8453 95.0296 38.7813 91.25 38.7813C87.104 38.7813 81.8175 37.1743 77.6683 33.7476C73.7154 30.4831 70.7187 25.5304 70.7187 18.25Z" fill="#1C274C"/>
</mask>
<g mask="url(#mask0_9_39)">
<path d="M-7.78997 112.611L206.101 78.2023L214.184 13.2837L7.77844 -12.4177L-7.78997 112.611Z" fill="url(#paint0_linear_9_39)"/>
<path d="M9 110C89.1402 79.1009 128.877 70.2363 211.861 68V122V207.103H14.5L9 110Z" fill="url(#paint1_linear_9_39)"/>
</g>
<defs>
<linearGradient id="paint0_linear_9_39" x1="80" y1="19" x2="100.446" y2="94.1092" gradientUnits="userSpaceOnUse">
<stop stop-color="#F8F6E8"/>
<stop offset="1" stop-color="#B8C76D"/>
</linearGradient>
<linearGradient id="paint1_linear_9_39" x1="129.5" y1="94" x2="137.5" y2="191.5" gradientUnits="userSpaceOnUse">
<stop stop-color="#B4C070"/>
<stop offset="1" stop-color="#BDDE22"/>
</linearGradient>
</defs>
</svg>
