<svg width="274" height="244" viewBox="0 0 274 244" fill="none" xmlns="http://www.w3.org/2000/svg">
<g clip-path="url(#clip0_9_57)">
<mask id="mask0_9_57" style="mask-type:alpha" maskUnits="userSpaceOnUse" x="-1" y="60" width="275" height="154">
<path d="M120.997 196.492L110.961 169.152C110.961 169.152 94.59 187.399 70.1098 187.399C48.3867 187.399 33.0085 168.536 33.0085 138.344C33.0085 99.7189 52.4967 85.899 71.6682 85.899C99.2737 85.899 108.016 103.786 115.551 126.759L125.492 158.158C135.433 188.649 154.305 213.138 208.66 213.138C247.602 213.138 274 201.227 274 169.743C274 144.33 259.469 131.118 232.523 124.841L212.453 120.466C198.547 117.289 194.437 111.629 194.437 102.219C194.437 91.5246 202.871 85.2311 216.734 85.2311C231.864 85.2311 239.887 90.8909 241.266 104.411L272.613 100.609C270.07 72.3446 250.487 60.7424 218.472 60.7424C190.147 60.7424 162.542 71.4541 162.542 105.653C162.542 127.059 172.851 140.562 198.89 146.813L220.159 151.856C236.128 155.649 241.428 162.336 241.428 171.438C241.428 183.075 230.1 187.887 208.651 187.887C176.944 187.887 163.749 171.25 156.214 148.285L145.905 116.887C132.71 76.0864 111.612 60.965 69.7758 60.965C24.5059 60.828 -0.0170898 89.9491 -0.0170898 139.672C-0.0170898 187.39 24.5059 213.266 68.5257 213.266C103.974 213.266 120.971 196.629 120.971 196.629L120.997 196.492Z" fill="black"/>
</mask>
<g mask="url(#mask0_9_57)">
<path d="M-22 167.341L283.456 123.214L295 39.9604L0.233154 7L-22 167.341Z" fill="url(#paint0_linear_9_57)"/>
<path d="M0 160.046C114.565 120.285 171.371 108.878 290 106V175.488V285H7.86253L0 160.046Z" fill="url(#paint1_linear_9_57)"/>
</g>
</g>
<defs>
<linearGradient id="paint0_linear_9_57" x1="103.372" y1="47.2912" x2="127.237" y2="144.918" gradientUnits="userSpaceOnUse">
<stop stop-color="#F8F6E8"/>
<stop offset="1" stop-color="#B8C76D"/>
</linearGradient>
<linearGradient id="paint1_linear_9_57" x1="172.261" y1="139.457" x2="181.539" y2="265.081" gradientUnits="userSpaceOnUse">
<stop stop-color="#B4C070"/>
<stop offset="1" stop-color="#BDDE22"/>
</linearGradient>
<clipPath id="clip0_9_57">
<rect width="274" height="244" fill="white"/>
</clipPath>
</defs>
</svg>
