<svg width="274" height="207" viewBox="0 0 274 207" fill="none" xmlns="http://www.w3.org/2000/svg">
<mask id="mask0_9_52" style="mask-type:alpha" maskUnits="userSpaceOnUse" x="22" y="89" width="230" height="96">
<path fill-rule="evenodd" clip-rule="evenodd" d="M170.223 102.764C161.632 94.423 149.915 89.2826 137 89.2826C124.099 89.2826 112.383 94.4158 103.792 102.751C95.1865 94.4158 83.4843 89.2826 70.5692 89.2826C44.2395 89.2826 22.8619 110.665 22.8619 137C22.8619 163.335 44.2395 184.717 70.5692 184.717C83.4843 184.717 95.1865 179.584 103.792 171.249C112.383 179.584 124.099 184.717 137 184.717C149.915 184.717 161.632 179.577 170.223 171.236C178.814 179.577 190.544 184.717 203.445 184.717C229.789 184.717 251.167 163.335 251.167 137C251.167 110.665 229.789 89.2826 203.445 89.2826C190.544 89.2826 178.814 94.423 170.223 102.764ZM160.133 116.985C154.51 110.508 146.233 106.408 137 106.408C127.781 106.408 119.504 110.499 113.881 116.964C116.799 123.24 118.304 130.079 118.291 137C118.291 144.153 116.721 150.94 113.881 157.036C119.504 163.501 127.781 167.592 137 167.592C146.233 167.592 154.51 163.492 160.133 157.015C157.227 150.743 155.727 143.912 155.738 137C155.738 129.855 157.307 123.075 160.133 116.985ZM93.6881 116.964C88.0797 110.499 79.8025 106.408 70.5692 106.408C53.6868 106.408 39.9869 120.116 39.9869 137C39.9869 153.884 53.6868 167.592 70.5692 167.592C79.8025 167.592 88.0797 163.501 93.6881 157.036C90.777 150.758 89.2721 143.92 89.2785 137C89.2785 129.847 90.8625 123.06 93.6881 116.964ZM180.326 157.015C185.935 163.492 194.212 167.592 203.445 167.592C220.328 167.592 234.042 153.884 234.042 137C234.042 120.116 220.328 106.408 203.445 106.408C194.212 106.408 185.935 110.508 180.326 116.985C183.221 123.26 184.716 130.09 184.708 137C184.708 144.145 183.138 150.925 180.326 157.015Z" fill="black" fill-opacity="0.88"/>
<path d="M93.6881 116.964C88.0797 110.499 79.8025 106.408 70.5692 106.408C53.6868 106.408 39.9869 120.116 39.9869 137C39.9869 153.884 53.6868 167.592 70.5692 167.592C79.8025 167.592 88.0797 163.501 93.6881 157.036C90.777 150.758 89.2721 143.92 89.2785 137C89.2785 129.847 90.8625 123.06 93.6881 116.964Z" fill="#FF8000"/>
<path d="M93.6881 116.964C88.0797 110.499 79.8025 106.408 70.5692 106.408C53.6868 106.408 39.9869 120.116 39.9869 137C39.9869 153.884 53.6868 167.592 70.5692 167.592C79.8025 167.592 88.0797 163.501 93.6881 157.036C90.777 150.758 89.2721 143.92 89.2785 137C89.2785 129.847 90.8625 123.06 93.6881 116.964Z" fill="#00E054" fill-opacity="0.2"/>
<path d="M160.133 116.985C154.51 110.508 146.233 106.408 137 106.408C127.781 106.408 119.504 110.499 113.881 116.964C116.799 123.24 118.304 130.079 118.291 137C118.291 144.153 116.721 150.94 113.881 157.036C119.504 163.501 127.781 167.592 137 167.592C146.233 167.592 154.51 163.492 160.133 157.015C157.227 150.743 155.727 143.912 155.738 137C155.738 129.855 157.307 123.075 160.133 116.985Z" fill="#00E054"/>
<path d="M180.326 157.015C185.935 163.492 194.212 167.592 203.445 167.592C220.328 167.592 234.042 153.884 234.042 137C234.042 120.116 220.328 106.408 203.445 106.408C194.212 106.408 185.935 110.508 180.326 116.985C183.221 123.26 184.716 130.09 184.708 137C184.708 144.145 183.138 150.925 180.326 157.015Z" fill="#40BCF4"/>
</mask>
<g mask="url(#mask0_9_52)">
<path d="M-3.00003 149.93L274.189 189.902L256.376 21.2019L56.4237 -7.75338L-3.00003 149.93Z" fill="url(#paint0_linear_9_52)" stroke="black"/>
<path d="M-1.47995 165.103C15.9135 148.325 77.0232 119.33 182.314 137.579C287.605 155.829 223.085 212.628 177.663 238.747L40.3183 265.545L0.411814 192.171L-1.61124 167.959L-1.47995 165.103Z" fill="url(#paint1_linear_9_52)"/>
<g opacity="0.34">
<path d="M93.6881 116.964C88.0797 110.499 79.8025 106.408 70.5692 106.408C53.6868 106.408 39.9869 120.116 39.9869 137C39.9869 153.884 53.6868 167.592 70.5692 167.592C79.8025 167.592 88.0797 163.501 93.6881 157.036C90.777 150.758 89.2721 143.92 89.2785 137C89.2785 129.847 90.8625 123.06 93.6881 116.964Z" fill="#FF8000"/>
<path d="M93.6881 116.964C88.0797 110.499 79.8025 106.408 70.5692 106.408C53.6868 106.408 39.9869 120.116 39.9869 137C39.9869 153.884 53.6868 167.592 70.5692 167.592C79.8025 167.592 88.0797 163.501 93.6881 157.036C90.777 150.758 89.2721 143.92 89.2785 137C89.2785 129.847 90.8625 123.06 93.6881 116.964Z" fill="#00E054" fill-opacity="0.2"/>
<path d="M160.133 116.985C154.51 110.508 146.233 106.408 137 106.408C127.781 106.408 119.504 110.499 113.881 116.964C116.799 123.24 118.304 130.079 118.291 137C118.291 144.153 116.721 150.94 113.881 157.036C119.504 163.501 127.781 167.592 137 167.592C146.233 167.592 154.51 163.492 160.133 157.015C157.227 150.743 155.727 143.912 155.738 137C155.738 129.855 157.307 123.075 160.133 116.985Z" fill="#00E054"/>
<path d="M180.326 157.015C185.935 163.492 194.212 167.592 203.445 167.592C220.328 167.592 234.042 153.884 234.042 137C234.042 120.116 220.328 106.408 203.445 106.408C194.212 106.408 185.935 110.508 180.326 116.985C183.221 123.26 184.716 130.09 184.708 137C184.708 144.145 183.138 150.925 180.326 157.015Z" fill="#40BCF4"/>
</g>
</g>
<defs>
<linearGradient id="paint0_linear_9_52" x1="122.839" y1="28.9606" x2="178.017" y2="172.31" gradientUnits="userSpaceOnUse">
<stop stop-color="#F7F8EC"/>
<stop offset="0.986196" stop-color="#C3CF86"/>
</linearGradient>
<linearGradient id="paint1_linear_9_52" x1="144.851" y1="236.012" x2="138.466" y2="156.112" gradientUnits="userSpaceOnUse">
<stop stop-color="#BBDC0C"/>
<stop offset="1" stop-color="#A8B853"/>
</linearGradient>
</defs>
</svg>
